<svg width="18" height="22" viewBox="0 0 18 22" fill="none" xmlns="http://www.w3.org/2000/svg">
<g clip-path="url(#clip0)">
<path d="M15.1876 6.53125H9.00002C8.76271 6.53125 8.57034 6.72362 8.57034 6.96094C8.57034 7.19825 8.76271 7.39062 9.00002 7.39062H15.1876C15.4249 7.39062 15.6173 7.19825 15.6173 6.96094C15.6173 6.72362 15.4249 6.53125 15.1876 6.53125Z" fill="#FFB500"/>
<path d="M13.684 8.71965C13.6041 8.63973 13.4933 8.59375 13.3802 8.59375C13.2672 8.59375 13.1564 8.63973 13.0765 8.71965C12.9965 8.79957 12.9506 8.91043 12.9506 9.02344C12.9506 9.13644 12.9965 9.2473 13.0765 9.32722C13.1564 9.40715 13.2672 9.45312 13.3802 9.45312C13.4933 9.45312 13.6041 9.40715 13.684 9.32722C13.764 9.2473 13.8099 9.13644 13.8099 9.02344C13.8099 8.91043 13.764 8.79957 13.684 8.71965Z" fill="#FFB500"/>
<path d="M9.30338 1.97355C9.22346 1.89363 9.1126 1.84766 8.99959 1.84766C8.88658 1.84766 8.77572 1.89363 8.6958 1.97355C8.61588 2.05348 8.5699 2.16434 8.5699 2.27734C8.5699 2.39035 8.61588 2.50121 8.6958 2.58113C8.77572 2.66105 8.88658 2.70703 8.99959 2.70703C9.1126 2.70703 9.22346 2.66105 9.30338 2.58113C9.3833 2.50121 9.42928 2.39035 9.42928 2.27734C9.42928 2.16434 9.3833 2.05348 9.30338 1.97355Z" fill="#FFB500"/>
<path d="M11.5729 8.59375H9.00002C8.76271 8.59375 8.57034 8.78612 8.57034 9.02344C8.57034 9.26075 8.76271 9.45312 9.00002 9.45312H11.5729C11.8102 9.45312 12.0025 9.26075 12.0025 9.02344C12.0025 8.78612 11.8102 8.59375 11.5729 8.59375Z" fill="#FFB500"/>
<path d="M15.1876 11.1719H9.00002C8.76271 11.1719 8.57034 11.3642 8.57034 11.6016C8.57034 11.8389 8.76271 12.0312 9.00002 12.0312H15.1876C15.4249 12.0312 15.6173 11.8389 15.6173 11.6016C15.6173 11.3642 15.4249 11.1719 15.1876 11.1719Z" fill="#FFB500"/>
<path d="M13.684 13.3603C13.6041 13.2804 13.4933 13.2344 13.3802 13.2344C13.2672 13.2344 13.1564 13.2804 13.0765 13.3603C12.9965 13.4402 12.9506 13.5511 12.9506 13.6641C12.9506 13.7771 12.9965 13.8879 13.0765 13.9678C13.1564 14.0478 13.2672 14.0937 13.3802 14.0937C13.4933 14.0937 13.6041 14.0478 13.684 13.9678C13.764 13.8879 13.8099 13.7771 13.8099 13.6641C13.8099 13.5511 13.764 13.4402 13.684 13.3603Z" fill="#FFB500"/>
<path d="M11.5729 13.2344H9.00002C8.76271 13.2344 8.57034 13.4267 8.57034 13.6641C8.57034 13.9014 8.76271 14.0937 9.00002 14.0937H11.5729C11.8102 14.0937 12.0025 13.9014 12.0025 13.6641C12.0025 13.4267 11.8102 13.2344 11.5729 13.2344Z" fill="#FFB500"/>
<path d="M15.1876 15.8125H9.00002C8.76271 15.8125 8.57034 16.0049 8.57034 16.2422C8.57034 16.4795 8.76271 16.6719 9.00002 16.6719H15.1876C15.4249 16.6719 15.6173 16.4795 15.6173 16.2422C15.6173 16.0049 15.4249 15.8125 15.1876 15.8125Z" fill="#FFB500"/>
<path d="M13.684 18.0009C13.6041 17.921 13.4933 17.875 13.3802 17.875C13.2672 17.875 13.1564 17.921 13.0765 18.0009C12.9965 18.0808 12.9506 18.1917 12.9506 18.3047C12.9506 18.4177 12.9965 18.5286 13.0765 18.6085C13.1564 18.6884 13.2672 18.7344 13.3802 18.7344C13.4933 18.7344 13.6041 18.6884 13.684 18.6085C13.764 18.5286 13.8099 18.4177 13.8099 18.3047C13.8099 18.1917 13.764 18.0808 13.684 18.0009Z" fill="#FFB500"/>
<path d="M11.5729 17.875H9.00002C8.76271 17.875 8.57034 18.0674 8.57034 18.3047C8.57034 18.542 8.76271 18.7344 9.00002 18.7344H11.5729C11.8102 18.7344 12.0025 18.542 12.0025 18.3047C12.0025 18.0674 11.8102 17.875 11.5729 17.875Z" fill="#FFB500"/>
<path d="M16.0143 1.67582H12.7324C12.258 1.22375 11.6167 0.945311 10.9112 0.945311H10.5348C10.247 0.375632 9.65581 0 8.99998 0C8.34414 0 7.75298 0.375632 7.46518 0.945311H7.08787C6.38237 0.945311 5.7411 1.22375 5.26669 1.67582H1.98573C0.830513 1.67582 -0.109341 2.61567 -0.109341 3.77089V19.9049C-0.109341 21.0601 0.830513 22 1.98573 22H16.0143C17.1695 22 18.1093 21.0601 18.1093 19.9049V3.77089C18.1094 2.61567 17.1695 1.67582 16.0143 1.67582ZM7.08791 1.80468H7.75762C7.9509 1.80468 8.12036 1.67565 8.1718 1.48938C8.27428 1.11843 8.61485 0.859373 9.00002 0.859373C9.38519 0.859373 9.72576 1.11843 9.8282 1.48938C9.87963 1.67565 10.0491 1.80468 10.2424 1.80468H10.9112C11.8438 1.80468 12.6115 2.52441 12.6881 3.43754H5.31099C5.3876 2.52441 6.15532 1.80468 7.08791 1.80468ZM17.25 19.905C17.25 20.5863 16.6957 21.1407 16.0143 21.1407H1.98573C1.30437 21.1407 0.750033 20.5863 0.750033 19.905V3.77089C0.750033 3.08953 1.30437 2.53519 1.98573 2.53519H4.66469C4.52393 2.85798 4.44534 3.21384 4.44534 3.58793V3.86722C4.44534 4.10454 4.63771 4.29691 4.87503 4.29691H13.1241C13.3614 4.29691 13.5538 4.10454 13.5538 3.86722V3.58793C13.5538 3.21388 13.4752 2.85798 13.3344 2.53519H16.0143C16.6957 2.53519 17.25 3.08953 17.25 3.77089V19.905Z" fill="#FFB500"/>
<path d="M6.2676 6.42797C6.09981 6.26018 5.82773 6.26018 5.65994 6.42793L3.82251 8.2654L3.25648 7.69933C3.08869 7.53158 2.81661 7.53158 2.64878 7.69933C2.48099 7.86712 2.48099 8.1392 2.64878 8.30704L3.51868 9.17694C3.6026 9.26086 3.71255 9.30279 3.82251 9.30279C3.93247 9.30279 4.04247 9.26086 4.12634 9.17694L6.2676 7.03568C6.43539 6.86789 6.43539 6.59581 6.2676 6.42797Z" fill="#FFB500"/>
<path d="M5.21878 15.8125H3.15628C2.91896 15.8125 2.72659 16.0049 2.72659 16.2422V18.3047C2.72659 18.542 2.91896 18.7344 3.15628 18.7344H5.21878C5.45609 18.7344 5.64846 18.542 5.64846 18.3047V16.2422C5.64846 16.0049 5.45609 15.8125 5.21878 15.8125ZM4.78909 17.875H3.58597V16.6719H4.78909V17.875Z" fill="#FFB500"/>
<path d="M5.21878 11.1719H3.15628C2.91896 11.1719 2.72659 11.3642 2.72659 11.6016V13.6641C2.72659 13.9014 2.91896 14.0937 3.15628 14.0937H5.21878C5.45609 14.0937 5.64846 13.9014 5.64846 13.6641V11.6016C5.64846 11.3642 5.45609 11.1719 5.21878 11.1719ZM4.78909 13.2344H3.58597V12.0312H4.78909V13.2344Z" fill="#FFB500"/>
</g>
<defs>
<clipPath id="clip0">
<rect width="18" height="22" fill="white"/>
</clipPath>
</defs>
</svg>
