<svg width="20" height="20" viewBox="0 0 20 20" fill="none" xmlns="http://www.w3.org/2000/svg">
<path d="M10 13.0658C12.9959 13.0658 15.3427 11.7187 15.3427 9.99998C15.3427 8.28123 12.9959 6.9342 10 6.9342C7.00407 6.9342 4.65735 8.28123 4.65735 9.99998C4.65735 11.7187 7.00407 13.0658 10 13.0658ZM10 7.48108C12.5997 7.48108 14.7958 8.63467 14.7958 9.99998C14.7958 11.3653 12.5997 12.5189 10 12.5189C7.40032 12.5189 5.20422 11.3653 5.20422 9.99998C5.20422 8.63467 7.40032 7.48108 10 7.48108Z" fill="black"/>
<path d="M17.6477 10C17.6194 7.82804 17.3519 5.66577 16.8498 3.55239V0.985514C16.8498 0.934733 16.8357 0.884956 16.809 0.841759C16.7823 0.798563 16.7441 0.763654 16.6987 0.740944C16.6533 0.718234 16.6024 0.708621 16.5519 0.713181C16.5013 0.717742 16.453 0.736296 16.4123 0.766764L15.2619 1.63598L14.1106 0.767233C14.0631 0.731412 14.0053 0.712036 13.9458 0.712036C13.8863 0.712036 13.8284 0.731412 13.7809 0.767233L12.6306 1.63645L11.4802 0.767233C11.4327 0.731412 11.3748 0.712036 11.3153 0.712036C11.2558 0.712036 11.198 0.731412 11.1505 0.767233L10 1.63645L8.84953 0.767233C8.80204 0.731412 8.74418 0.712036 8.68469 0.712036C8.62521 0.712036 8.56734 0.731412 8.51985 0.767233L7.36938 1.63645L6.21875 0.767233C6.17126 0.731412 6.1134 0.712036 6.05391 0.712036C5.99442 0.712036 5.93656 0.731412 5.88907 0.767233L4.7386 1.63645L3.58844 0.767233C3.54782 0.736764 3.49951 0.718211 3.44894 0.71365C3.39836 0.70909 3.34751 0.718703 3.30209 0.741413C3.25667 0.764123 3.21848 0.799032 3.19178 0.842228C3.16508 0.885425 3.15094 0.935202 3.15094 0.985983V3.55239C2.64866 5.66574 2.38085 7.82801 2.35235 10C2.38058 12.172 2.64813 14.3343 3.15016 16.4477V19.0146C3.15005 19.0655 3.16416 19.1154 3.19089 19.1588C3.21763 19.2021 3.25593 19.2371 3.30149 19.2598C3.34704 19.2826 3.39804 19.2921 3.44874 19.2874C3.49944 19.2828 3.54782 19.264 3.58844 19.2333L4.73891 18.3641L5.88938 19.2333C5.93687 19.2691 5.99474 19.2885 6.05422 19.2885C6.11371 19.2885 6.17157 19.2691 6.21907 19.2333L7.36938 18.3641L8.51985 19.2333C8.56734 19.2691 8.62521 19.2885 8.68469 19.2885C8.74418 19.2885 8.80204 19.2691 8.84953 19.2333L10 18.3636L11.1505 19.2329C11.198 19.2687 11.2558 19.2881 11.3153 19.2881C11.3748 19.2881 11.4327 19.2687 11.4802 19.2329L12.6306 18.3636L13.7813 19.2329C13.8287 19.2687 13.8866 19.2881 13.9461 19.2881C14.0056 19.2881 14.0634 19.2687 14.1109 19.2329L15.2614 18.3636L16.4119 19.2329C16.4525 19.2633 16.5008 19.2819 16.5514 19.2864C16.602 19.291 16.6528 19.2814 16.6982 19.2587C16.7436 19.236 16.7818 19.2011 16.8085 19.1579C16.8352 19.1147 16.8494 19.0649 16.8494 19.0141V16.4477C17.3516 14.3343 17.6193 12.1721 17.6477 10ZM3.69704 1.53473L4.57407 2.19739C4.62159 2.23314 4.67944 2.25247 4.73891 2.25247C4.79838 2.25247 4.85623 2.23314 4.90375 2.19739L6.05422 1.32817L7.20454 2.19739C7.25206 2.23314 7.30991 2.25247 7.36938 2.25247C7.42885 2.25247 7.4867 2.23314 7.53422 2.19739L8.68469 1.32817L9.83516 2.19739C9.88268 2.23314 9.94054 2.25247 10 2.25247C10.0595 2.25247 10.1173 2.23314 10.1648 2.19739L11.3153 1.32817L12.4658 2.19739C12.5133 2.23314 12.5712 2.25247 12.6306 2.25247C12.6901 2.25247 12.7479 2.23314 12.7955 2.19739L13.9458 1.32817L15.0963 2.19739C15.1438 2.23314 15.2016 2.25247 15.2611 2.25247C15.3206 2.25247 15.3784 2.23314 15.4259 2.19739L16.303 1.53473V3.31255H3.69704V1.53473ZM3.63875 3.85942H16.3613C16.8263 5.87401 17.0743 7.93263 17.1008 10C17.074 12.0674 16.826 14.126 16.3613 16.1407H3.63875C3.17368 14.1261 2.92575 12.0675 2.89922 10C2.92605 7.93265 3.17397 5.87407 3.63875 3.85942ZM16.303 18.465L15.4259 17.8025C15.3784 17.7667 15.3206 17.7473 15.2611 17.7473C15.2016 17.7473 15.1437 17.7667 15.0963 17.8025L13.9458 18.6719L12.7955 17.8029C12.748 17.767 12.6901 17.7477 12.6306 17.7477C12.5711 17.7477 12.5133 17.767 12.4658 17.8029L11.3153 18.6719L10.1648 17.8029C10.1174 17.767 10.0595 17.7475 10 17.7475C9.9405 17.7475 9.88262 17.767 9.83516 17.8029L8.68469 18.6719L7.53422 17.8029C7.48673 17.767 7.42886 17.7477 7.36938 17.7477C7.30989 17.7477 7.25203 17.767 7.20454 17.8029L6.05422 18.6719L4.90375 17.8029C4.85626 17.767 4.7984 17.7477 4.73891 17.7477C4.67942 17.7477 4.62156 17.767 4.57407 17.8029L3.69704 18.4654V16.6875H16.303V18.465Z" fill="black"/>
<path d="M6.79844 10.845C6.92302 10.8451 7.04628 10.8194 7.16042 10.7695C7.27456 10.7196 7.3771 10.6466 7.46157 10.555L7.12407 10.2603C7.08601 10.311 7.0369 10.3523 6.98048 10.3811C6.92405 10.4099 6.86179 10.4254 6.79844 10.4265C6.68731 10.4235 6.58174 10.3773 6.5042 10.2976C6.42666 10.2179 6.38327 10.1112 6.38327 9.99999C6.38327 9.88881 6.42666 9.78203 6.5042 9.70236C6.58174 9.6227 6.68731 9.57643 6.79844 9.57343C6.86143 9.57456 6.92332 9.59013 6.97935 9.61896C7.03537 9.64778 7.08402 9.68908 7.12157 9.73968L7.46157 9.4428C7.37664 9.35198 7.27396 9.27957 7.15988 9.23009C7.04581 9.18061 6.92278 9.1551 6.79844 9.15515C6.68386 9.14931 6.56928 9.16685 6.46169 9.20668C6.35409 9.24651 6.25572 9.30781 6.17256 9.38685C6.08939 9.46589 6.02317 9.56102 5.97792 9.66645C5.93267 9.77188 5.90934 9.88541 5.90934 10.0001C5.90934 10.1149 5.93267 10.2284 5.97792 10.3338C6.02317 10.4393 6.08939 10.5344 6.17256 10.6134C6.25572 10.6925 6.35409 10.7538 6.46169 10.7936C6.56928 10.8334 6.68386 10.851 6.79844 10.8451V10.845Z" fill="black"/>
<path d="M8.34875 10.1889H8.94532V10.8166H9.40641V9.18347H8.94532V9.77769H8.34875V9.18347H7.8875V10.8166H8.34875V10.1889Z" fill="black"/>
<path d="M9.93938 9.18347H10.4005V10.8164H9.93938V9.18347Z" fill="black"/>
<path d="M11.392 10.3244H11.713C11.7924 10.3318 11.8724 10.3226 11.948 10.2974C12.0237 10.2721 12.0932 10.2313 12.1521 10.1776C12.2111 10.1239 12.2582 10.0585 12.2904 9.9856C12.3226 9.91267 12.3392 9.83382 12.3392 9.75409C12.3392 9.67436 12.3226 9.59551 12.2904 9.52258C12.2582 9.44965 12.2111 9.38425 12.1521 9.33057C12.0932 9.27689 12.0237 9.2361 11.948 9.21082C11.8724 9.18555 11.7924 9.17633 11.713 9.18377H10.9317V10.8166H11.3928L11.392 10.3244ZM11.392 9.6019H11.675C11.7844 9.6019 11.8625 9.66596 11.8625 9.75409C11.8625 9.84221 11.7844 9.90612 11.675 9.90612H11.392V9.6019Z" fill="black"/>
<path d="M13.4344 10.4625C13.237 10.4596 13.0465 10.3891 12.8948 10.2628L12.6383 10.5695C12.8558 10.7534 13.133 10.8514 13.4178 10.8451C13.8267 10.8451 14.0906 10.6431 14.0906 10.2982C14.0906 9.98682 13.8528 9.88464 13.4727 9.80386C13.2395 9.75401 13.1825 9.72776 13.1825 9.64464C13.1825 9.58214 13.2372 9.53761 13.3489 9.53761C13.5174 9.54291 13.6802 9.60022 13.8148 9.70167L14.0455 9.37604C13.8505 9.22377 13.608 9.14544 13.3608 9.15495C12.9733 9.15495 12.7167 9.36636 12.7167 9.69214C12.7167 10.032 12.99 10.1248 13.3441 10.2054C13.57 10.2578 13.627 10.2698 13.627 10.3482C13.627 10.4196 13.5605 10.4625 13.4344 10.4625Z" fill="black"/>
<path d="M4.75266 15.2432H8.37204C8.44456 15.2432 8.51411 15.2144 8.56539 15.1631C8.61667 15.1118 8.64548 15.0422 8.64548 14.9697C8.64548 14.8972 8.61667 14.8277 8.56539 14.7764C8.51411 14.7251 8.44456 14.6963 8.37204 14.6963H4.75266C4.68014 14.6963 4.61059 14.7251 4.55931 14.7764C4.50803 14.8277 4.47923 14.8972 4.47923 14.9697C4.47923 15.0422 4.50803 15.1118 4.55931 15.1631C4.61059 15.2144 4.68014 15.2432 4.75266 15.2432Z" fill="black"/>
<path d="M10.4005 14.6963H9.65813C9.58561 14.6963 9.51606 14.7251 9.46478 14.7764C9.4135 14.8277 9.38469 14.8972 9.38469 14.9697C9.38469 15.0422 9.4135 15.1118 9.46478 15.1631C9.51606 15.2144 9.58561 15.2432 9.65813 15.2432H10.4005C10.473 15.2432 10.5425 15.2144 10.5938 15.1631C10.6451 15.1118 10.6739 15.0422 10.6739 14.9697C10.6739 14.8972 10.6451 14.8277 10.5938 14.7764C10.5425 14.7251 10.473 14.6963 10.4005 14.6963Z" fill="black"/>
</svg>
