<svg width="20" height="20" viewBox="0 0 20 20" fill="none" xmlns="http://www.w3.org/2000/svg">
<g clip-path="url(#clip0)">
<path d="M15.707 16.0238C15.9227 16.0238 16.0976 15.8489 16.0976 15.6332C16.0976 15.4174 15.9227 15.2426 15.707 15.2426C15.4913 15.2426 15.3164 15.4174 15.3164 15.6332C15.3164 15.8489 15.4913 16.0238 15.707 16.0238Z" fill="black"/>
<path d="M17.6398 11.0258C17.5975 10.8845 17.4793 10.7791 17.3341 10.7533L16.0977 10.533V0.390625C16.0977 0.174883 15.9228 0 15.7071 0H4.1768C3.96106 0 3.78617 0.174883 3.78617 0.390625V11.6427C3.07871 11.8946 2.60328 12.064 2.60328 12.064C2.47485 12.1097 2.37957 12.2191 2.35188 12.3526C2.32418 12.4861 2.36805 12.6243 2.46766 12.7173L3.78633 13.9496V19.6094C3.78633 19.7121 3.82774 19.8129 3.90078 19.8855C3.97344 19.9582 4.07383 20 4.17695 20H15.707C15.8097 20 15.9105 19.9582 15.9832 19.8855C16.0558 19.8129 16.0976 19.7121 16.0976 19.6094V17.391C16.0976 17.1754 15.9222 17.0004 15.707 17.0004C15.4918 17.0004 15.3164 17.1754 15.3164 17.391V19.2188H4.56758V14.6797L5.23727 15.3055C5.30977 15.3733 5.4052 15.4108 5.50395 15.4108C5.51071 15.4108 5.5175 15.4106 5.5243 15.4102C5.6302 15.4047 5.72934 15.3564 5.79891 15.2763L10.0405 10.3928L14.2779 14.0227C14.3513 14.0855 14.4417 14.1167 14.532 14.1167C14.6289 14.1167 14.7255 14.0809 14.8006 14.0097L15.3164 13.5214V13.8754C15.3164 14.0906 15.4918 14.266 15.707 14.266C15.9227 14.266 16.0977 14.0906 16.0977 13.8754C16.0977 13.875 16.0977 13.875 16.0977 13.8746V12.7816L17.5342 11.4215C17.6413 11.3201 17.6821 11.1671 17.6398 11.0258ZM12.2543 0.78125H15.3164V3.84375H12.2543V0.78125ZM12.2543 4.625H15.3164V7.6875H12.2543V4.625ZM15.3164 8.46875V10.3939L12.2543 9.84852V8.46875H15.3164ZM8.41086 0.78125H11.473V3.84375H8.41086V0.78125ZM8.41086 4.625H11.473V7.6875H8.41086V4.625ZM4.56742 0.78125H7.62957V3.84375H4.56742V0.78125ZM4.56742 4.625H7.62957V7.6875H4.56742V4.625ZM4.56742 8.46875H7.62957V10.2737C6.65063 10.6223 5.51278 11.0277 4.56742 11.3644V8.46875ZM5.47469 14.4581L3.46988 12.5846L8.72926 10.7111L5.47469 14.4581ZM9.86918 9.47602C9.86914 9.47598 9.26762 9.69023 8.41086 9.99539V8.46875H11.473V9.70934L10.0685 9.45918C9.99992 9.44699 9.93156 9.45379 9.86918 9.47602ZM14.5189 13.2005L11.3428 10.4797L16.4347 11.3866L14.5189 13.2005Z" fill="black"/>
</g>
<defs>
<clipPath id="clip0">
<rect width="20" height="20" fill="white"/>
</clipPath>
</defs>
</svg>
