<svg width="20" height="20" viewBox="0 0 20 20" fill="none" xmlns="http://www.w3.org/2000/svg">
<g clip-path="url(#clip0)">
<path d="M18.2015 1.79934C15.8027 -0.599453 11.8996 -0.599453 9.50073 1.79934C8.99667 2.3034 8.59104 2.8791 8.2905 3.51477C7.71804 3.09805 6.90944 3.14766 6.39331 3.66379C5.82218 4.23492 5.82218 5.16426 6.39331 5.73539L6.84229 6.18437L3.46424 12.4622C3.38757 12.6047 3.44089 12.7825 3.58342 12.859C3.72589 12.9357 3.90358 12.8823 3.98022 12.7398L7.27491 6.61691L9.08643 8.42844C9.42913 8.77113 9.42913 9.32871 9.08643 9.67141L7.85518 10.9027C7.51616 11.2417 7.49827 11.7794 7.8144 12.1268C7.82409 12.1374 7.83393 12.1478 7.84401 12.1579C8.00448 12.3184 8.21596 12.4091 8.44413 12.4145C8.68323 12.4202 8.91733 12.3264 9.08643 12.1573L10.3294 10.9144C10.6721 10.5717 11.2297 10.5717 11.5724 10.9144L13.3839 12.7259L8.22554 15.5016C6.41452 15.4005 4.68382 14.6752 3.34409 13.454C3.27917 13.3949 3.19112 13.3679 3.10421 13.3807C3.01729 13.3934 2.94069 13.4445 2.89549 13.5198C2.89186 13.5259 2.89186 13.5259 0.104244 18.7064C-0.0780608 19.0452 -0.0153655 19.472 0.256783 19.7441C0.528893 20.0162 0.955572 20.0789 1.29444 19.8966L13.8165 13.1585L14.2655 13.6075C14.8366 14.1786 15.7659 14.1786 16.3371 13.6075C16.8532 13.0913 16.9028 12.2828 16.4861 11.7103C17.1217 11.4097 17.6975 11.0041 18.2015 10.5C20.6003 8.10125 20.6003 4.19812 18.2015 1.79934ZM1.01678 19.3806C0.903893 19.4413 0.761705 19.4204 0.671041 19.3298C0.580377 19.2391 0.559439 19.097 0.620182 18.9841C0.620182 18.9841 2.62174 15.2643 3.23085 14.1324C4.40077 15.1074 5.81585 15.7493 7.3151 15.9915L1.01678 19.3806ZM15.9227 13.1931C15.58 13.5358 15.0225 13.5358 14.6798 13.1931L11.9867 10.5C11.4155 9.92891 10.4862 9.92891 9.91507 10.5L8.6721 11.743C8.61491 11.8002 8.53886 11.8306 8.45796 11.8287C8.37714 11.8268 8.30249 11.7922 8.24776 11.7324C8.14429 11.6187 8.15405 11.4324 8.26948 11.317L9.50073 10.0857C10.0719 9.51457 10.0719 8.58523 9.50073 8.0141L6.80764 5.32102C6.46495 4.97832 6.46495 4.42074 6.80764 4.07805C7.15034 3.73535 7.70792 3.73535 8.05061 4.07805C8.31866 4.34609 8.36374 4.54574 8.42085 4.79855C8.48624 5.08816 8.56034 5.41641 8.94827 5.80434C9.3362 6.19227 9.66444 6.26637 9.95405 6.33176C10.2069 6.38883 10.4065 6.43391 10.6746 6.70195C10.9426 6.97 10.9877 7.16969 11.0448 7.42246C11.1102 7.71207 11.1843 8.04031 11.5722 8.42824C11.9602 8.81621 12.2884 8.89031 12.578 8.9557C12.8308 9.01277 13.0305 9.05789 13.2986 9.32598C13.5667 9.59406 13.6117 9.79371 13.6689 10.0465C13.7343 10.3361 13.8084 10.6644 14.1964 11.0524C14.5843 11.4404 14.9126 11.5145 15.2022 11.5799C15.455 11.637 15.6547 11.6821 15.9228 11.9502C16.2654 12.2929 16.2654 12.8505 15.9227 13.1931ZM16.0225 11.2762C15.767 11.1074 15.5391 11.0554 15.3312 11.0084C15.0784 10.9513 14.8787 10.9062 14.6106 10.6381C14.3425 10.37 14.2975 10.1704 14.2403 9.91754C14.175 9.62789 14.1008 9.29965 13.7129 8.91172C13.3249 8.52375 12.9967 8.44965 12.7071 8.38426C12.4543 8.32715 12.2546 8.28207 11.9865 8.01398C11.7185 7.74594 11.6734 7.54629 11.6163 7.29348C11.5509 7.00387 11.4768 6.67563 11.0889 6.2877C10.7009 5.89977 10.3727 5.82566 10.0831 5.76027C9.8303 5.7032 9.63065 5.65812 9.36261 5.39008C9.09456 5.12203 9.04944 4.92234 8.99237 4.66957C8.94542 4.46172 8.89335 4.23379 8.72464 3.97836C9.00339 3.31855 9.40323 2.72547 9.91507 2.21367C12.0854 0.0433204 15.6168 0.0433204 17.7871 2.21367C19.9575 4.38402 19.9575 7.91539 17.7871 10.0858C17.2753 10.5975 16.6823 10.9974 16.0225 11.2762Z" fill="black"/>
</g>
<defs>
<clipPath id="clip0">
<rect width="20" height="20" fill="white"/>
</clipPath>
</defs>
</svg>
