<svg width="16" height="16" viewBox="0 0 16 16" fill="none" xmlns="http://www.w3.org/2000/svg">
<path d="M9.65874 8.17389C9.65874 7.30814 8.95134 6.60368 8.08189 6.60368C7.21254 6.60368 6.50517 7.30816 6.50517 8.17389C6.50517 9.03986 7.21254 9.7442 8.08189 9.7442C8.95134 9.7442 9.65874 9.03986 9.65874 8.17389ZM12.0014 0H3.99863C1.79379 0 0 1.78651 0 3.98235V5.09195H5.88399C6.50486 4.65148 7.26314 4.39128 8.08189 4.39128C8.90062 4.39128 9.65901 4.65148 10.2799 5.09195H16V3.98235C16 1.78649 14.2062 0 12.0014 0ZM13.6208 3.78753C13.6208 4.03088 13.4209 4.23001 13.1765 4.23001H11.8037C11.5593 4.23001 11.3594 4.03088 11.3594 3.78753V2.42025C11.3594 2.17691 11.5593 1.97776 11.8037 1.97776H13.1765C13.4209 1.97776 13.6208 2.17688 13.6208 2.42025V3.78753V3.78753ZM11.8802 8.17389C11.8802 10.2598 10.1762 11.9566 8.08187 11.9566C5.98751 11.9566 4.28368 10.2598 4.28368 8.17389C4.28368 7.59963 4.41356 7.05502 4.64452 6.56686H0V12.0176C0 14.2137 1.79379 16 3.99863 16H12.0014C14.2062 16 16 14.2136 16 12.0176V6.56686H11.5193C11.7503 7.05502 11.8802 7.59963 11.8802 8.17389Z" fill="#FF55EE"/>
</svg>
