<svg width="16" height="16" viewBox="0 0 16 16" fill="none" xmlns="http://www.w3.org/2000/svg">
<path opacity="0.5" d="M9.78124 0.991334C9.81492 0.865673 9.89709 0.758514 10.0097 0.693387C10.1223 0.628261 10.2562 0.61049 10.3819 0.643978C11.5741 0.964579 12.6612 1.59284 13.5341 2.46582C14.4071 3.33881 15.0354 4.42586 15.3559 5.61808C15.373 5.68046 15.3775 5.74559 15.3693 5.80974C15.3611 5.87388 15.3403 5.93577 15.3081 5.99184C15.2759 6.04791 15.2329 6.09706 15.1817 6.13647C15.1304 6.17587 15.0718 6.20475 15.0094 6.22145C14.9469 6.23814 14.8817 6.24232 14.8176 6.23375C14.7535 6.22517 14.6918 6.20401 14.6359 6.17148C14.58 6.13895 14.5311 6.09569 14.492 6.04419C14.4529 5.99269 14.4243 5.93397 14.408 5.87141C14.1322 4.84569 13.5916 3.91046 12.8406 3.15941C12.0895 2.40835 11.1543 1.86784 10.1286 1.59201C10.0663 1.57538 10.008 1.54665 9.95683 1.50746C9.90568 1.46828 9.86276 1.4194 9.8305 1.36362C9.79825 1.30784 9.77729 1.24625 9.76884 1.18238C9.76039 1.1185 9.7646 1.05358 9.78124 0.991334V0.991334ZM9.45122 4.12007C10.0334 4.27658 10.5642 4.58333 10.9904 5.00959C11.4167 5.43584 11.7234 5.96664 11.8799 6.54878C11.9135 6.6745 11.9957 6.78172 12.1083 6.84686C12.221 6.91201 12.3549 6.92973 12.4806 6.89614C12.6063 6.86255 12.7135 6.78039 12.7787 6.66774C12.8438 6.55509 12.8616 6.42118 12.828 6.29546C12.6267 5.54681 12.2322 4.8642 11.684 4.31602C11.1358 3.76784 10.4532 3.37334 9.70454 3.17204C9.64229 3.15541 9.57737 3.1512 9.5135 3.15965C9.44962 3.1681 9.38804 3.18906 9.33226 3.22131C9.21961 3.28645 9.13745 3.39368 9.10386 3.51939C9.07027 3.64511 9.08799 3.77902 9.15314 3.89167C9.21828 4.00432 9.3255 4.08648 9.45122 4.12007ZM15.9918 12.1429C15.8547 13.2082 15.3346 14.1872 14.5284 14.897C13.7223 15.6068 12.6853 15.9989 11.6112 16C5.20878 16 0 10.7912 0 4.38877C0.00109366 3.31468 0.393157 2.27772 1.10296 1.47158C1.81276 0.665446 2.79175 0.145272 3.85706 0.00822237C4.10299 -0.0213817 4.35191 0.0294244 4.56657 0.153043C4.78123 0.276661 4.95011 0.466448 5.04794 0.694021L6.69077 4.5272C6.76536 4.70068 6.79578 4.88995 6.77931 5.07806C6.76285 5.26618 6.7 5.44728 6.59641 5.60516L5.23609 7.68366C5.22072 7.70602 5.21138 7.73198 5.20898 7.75901C5.20659 7.78605 5.21123 7.81324 5.22244 7.83796C5.85365 9.12562 6.8977 10.165 8.18821 10.7903C8.21307 10.8014 8.24038 10.8059 8.26749 10.8033C8.29459 10.8007 8.32056 10.7911 8.34284 10.7754L10.3899 9.41038C10.5482 9.30439 10.7306 9.23974 10.9203 9.22231C11.11 9.20489 11.3011 9.23525 11.4761 9.31062L15.3059 10.9521C15.5335 11.0499 15.7233 11.2187 15.8469 11.4334C15.9706 11.648 16.0214 11.8969 15.9918 12.1429V12.1429ZM15.0182 12.0199C15.0219 11.9852 15.0142 11.9504 14.9964 11.9204C14.9785 11.8905 14.9515 11.8672 14.9193 11.8539L11.0895 10.2125C11.0645 10.2018 11.0372 10.1975 11.0101 10.2C10.9831 10.2025 10.957 10.2117 10.9343 10.2268L8.88726 11.5919C8.72282 11.7019 8.53261 11.7673 8.33529 11.7817C8.13796 11.7961 7.94028 11.759 7.76162 11.674C6.27308 10.9526 5.06882 9.75381 4.34072 8.26855C4.25536 8.09095 4.21736 7.89429 4.2304 7.69767C4.24343 7.50105 4.30707 7.31113 4.41513 7.14635L5.77536 5.06778C5.79018 5.0452 5.79917 5.01931 5.80152 4.99241C5.80388 4.96551 5.79952 4.93845 5.78885 4.91364L4.14611 1.08063C4.13391 1.05143 4.11348 1.02641 4.0873 1.00864C4.06111 0.990861 4.03032 0.981099 3.99868 0.980541C3.99247 0.980556 3.98627 0.980966 3.98012 0.981767C3.15169 1.08845 2.39043 1.49307 1.83855 2.12006C1.28667 2.74704 0.98192 3.55349 0.981231 4.38877C0.984413 7.20704 2.10538 9.90898 4.0982 11.9018C6.09102 13.8946 8.79296 15.0156 11.6112 15.0188C12.4465 15.0181 13.253 14.7133 13.8799 14.1615C14.5069 13.6096 14.9116 12.8483 15.0182 12.0199V12.0199Z" fill="#03AA00"/>
</svg>
