<svg width="25" height="26" viewBox="0 0 25 26" fill="none" xmlns="http://www.w3.org/2000/svg">
<path fill-rule="evenodd" clip-rule="evenodd" d="M16.3156 16.9683C16.4607 16.8172 16.6331 16.6973 16.8228 16.6156C17.0124 16.5338 17.2158 16.4917 17.4211 16.4917C17.6264 16.4917 17.8298 16.5338 18.0194 16.6156C18.2091 16.6973 18.3815 16.8172 18.5266 16.9683L24.5422 23.2245C24.8354 23.5292 25.0002 23.9426 25.0003 24.3737C25.0005 24.8047 24.836 25.2182 24.543 25.5231C24.25 25.828 23.8525 25.9994 23.4381 25.9996C23.0236 25.9997 22.626 25.8286 22.3328 25.5239L16.3172 19.2677C16.1719 19.1167 16.0567 18.9375 15.978 18.7403C15.8994 18.543 15.8589 18.3315 15.8589 18.118C15.8589 17.9044 15.8994 17.693 15.978 17.4957C16.0567 17.2984 16.1719 17.1192 16.3172 16.9683H16.3156Z" fill="white"/>
<path fill-rule="evenodd" clip-rule="evenodd" d="M10.1562 19.5C11.2848 19.5 12.4023 19.2688 13.4449 18.8197C14.4876 18.3705 15.4349 17.7122 16.2329 16.8823C17.031 16.0523 17.664 15.0671 18.0958 13.9827C18.5277 12.8984 18.75 11.7362 18.75 10.5625C18.75 9.38881 18.5277 8.22661 18.0958 7.14227C17.664 6.05792 17.031 5.07266 16.2329 4.24273C15.4349 3.41281 14.4876 2.75448 13.4449 2.30533C12.4023 1.85618 11.2848 1.625 10.1562 1.625C7.87705 1.625 5.69119 2.56663 4.07955 4.24273C2.46791 5.91884 1.5625 8.19213 1.5625 10.5625C1.5625 12.9329 2.46791 15.2062 4.07955 16.8823C5.69119 18.5584 7.87705 19.5 10.1562 19.5V19.5ZM20.3125 10.5625C20.3125 13.3638 19.2425 16.0505 17.3378 18.0313C15.4331 20.0122 12.8499 21.125 10.1562 21.125C7.46264 21.125 4.87936 20.0122 2.9747 18.0313C1.07003 16.0505 0 13.3638 0 10.5625C0 7.76115 1.07003 5.07454 2.9747 3.09368C4.87936 1.11283 7.46264 0 10.1562 0C12.8499 0 15.4331 1.11283 17.3378 3.09368C19.2425 5.07454 20.3125 7.76115 20.3125 10.5625V10.5625Z" fill="white"/>
</svg>
