<svg width="258" height="82" viewBox="0 0 258 82" fill="none" xmlns="http://www.w3.org/2000/svg">
<g clip-path="url(#clip0)">
<path d="M64.5157 67.6127C60.3729 67.6127 57.0214 70.8238 57.0214 74.7932C57.0214 78.7625 60.3729 81.9737 64.5157 81.9737C68.6585 81.9737 72.0099 78.7625 72.0099 74.7932C72.0099 70.8238 68.6585 67.6127 64.5157 67.6127Z" fill="black"/>
<path d="M42.1261 67.6127C37.9834 67.6127 34.6319 70.8238 34.6319 74.7932C34.6319 78.7625 37.9834 81.9737 42.1261 81.9737C46.2689 81.9737 49.6204 78.7625 49.6204 74.7932C49.6669 70.8238 46.2689 67.6127 42.1261 67.6127Z" fill="black"/>
<path d="M88.0225 16.6802C87.045 15.3868 85.5089 14.6732 83.8797 14.6732H23.6464L20.1088 3.34495C19.4106 1.33798 17.4555 0 15.2678 0H5.07375C2.28086 0 0 2.18537 0 4.86133C0 7.5819 2.28086 9.76727 5.07375 9.76727H11.5905L26.2997 59.3618C26.9979 61.3688 28.9529 62.7068 31.1407 62.7068H75.2218C77.4095 62.7068 79.3646 61.3688 80.0628 59.3618L88.7207 21.0955C89.2328 19.5791 89 17.929 88.0225 16.6802Z" fill="#FF0000"/>
<path d="M38.4953 22.2998C44.4069 22.2998 46.6412 24.5744 46.6412 29.5249C46.6412 30.5507 46.3154 32.5131 45.0586 33.8956C46.3619 34.4754 47.2929 35.9918 47.2929 37.8204C47.2929 41.5667 45.5706 43.3507 39.659 43.3507H31.932C31.3269 43.3507 31.001 43.0385 31.001 42.4587V23.2364C31.001 22.6566 31.3269 22.3444 31.932 22.2998H38.4953ZM39.2866 39.0692C40.7762 39.0692 41.5675 38.9354 41.5675 37.5082C41.5675 36.081 40.8692 35.9026 39.3797 35.9026H37.3316C36.7265 35.9026 36.4006 36.2148 36.4006 36.7946V38.1772C36.4006 38.8016 36.7265 39.0692 37.3316 39.0692H39.2866ZM39.0073 31.5765C40.4969 31.5765 41.2882 31.3981 41.2882 29.5249C41.2882 27.6517 40.5434 27.4733 39.0073 27.4733H37.3316C36.7265 27.4733 36.4006 27.7855 36.4006 28.3653V30.6399C36.4006 31.2197 36.7265 31.5319 37.3316 31.5319H39.0073V31.5765Z" fill="white"/>
<path d="M55.113 22.2998C55.7181 22.2998 56.044 22.612 56.044 23.1918V42.4587C56.044 43.0385 55.7181 43.3507 55.113 43.3507H51.6684C51.0633 43.3507 50.7375 43.0385 50.7375 42.4587V23.1918C50.7375 22.612 51.0633 22.2998 51.6684 22.2998H55.113Z" fill="white"/>
<path d="M39.0072 47.9889C39.2865 47.9889 39.4262 48.1227 39.4727 48.3457L40.4968 52.4042C40.5433 52.538 40.6364 52.538 40.683 52.4042L41.707 48.3457C41.7536 48.1227 41.8932 47.9889 42.1725 47.9889H45.1516C45.4309 47.9889 45.5705 48.1227 45.5705 48.3903V57.2656C45.5705 57.5332 45.4309 57.667 45.1516 57.667H43.5224C43.2431 57.667 43.1035 57.5332 43.1035 57.2656V51.7798C43.1035 51.6906 42.9638 51.6906 42.9638 51.7798L41.5674 57.3102C41.5208 57.5332 41.3346 57.667 41.1019 57.667H40.1244C39.8451 57.667 39.7054 57.5332 39.6589 57.3102L38.2625 51.7798C38.2159 51.6906 38.1228 51.6906 38.1228 51.7798V57.2656C38.1228 57.5332 37.9832 57.667 37.7039 57.667H36.0747C35.7954 57.667 35.6558 57.5332 35.6558 57.2656V48.3903C35.6558 48.1227 35.7954 47.9889 36.0747 47.9889H39.0072Z" fill="white"/>
<path d="M54.1354 57.221C54.1354 57.5332 53.9958 57.7116 53.7165 57.7116H52.0873C51.808 57.7116 51.6684 57.5778 51.6684 57.3102V56.106C51.6684 55.8384 51.5287 55.7046 51.2495 55.7046H49.9927C49.7134 55.7046 49.5737 55.8384 49.5737 56.106V57.3102C49.5737 57.5778 49.4341 57.7116 49.1548 57.7116H47.4791C47.1998 57.7116 47.0601 57.5332 47.0601 57.221V51.3339C47.0601 49.5945 47.3394 47.7213 50.5978 47.7213C53.8561 47.7213 54.1354 49.5945 54.1354 51.3339V57.221ZM51.6218 51.3339C51.6218 50.6649 51.5287 50.3527 50.5512 50.3527C49.5737 50.3527 49.4806 50.6649 49.4806 51.3339V52.8502C49.4806 53.1178 49.6203 53.2516 49.8996 53.2516H51.1564C51.4356 53.2516 51.5753 53.1178 51.5753 52.8056V51.3339H51.6218Z" fill="white"/>
<path d="M63.1659 56.9534C63.3521 57.3102 63.1193 57.7116 62.7004 57.7116H61.0712C60.9316 57.7116 60.7919 57.6224 60.7454 57.5332L59.2558 54.7234C59.2093 54.6788 59.1627 54.6342 59.1162 54.6342H58.5576C58.2783 54.6342 58.0921 54.8126 58.0921 55.0802V57.2656C58.0921 57.5332 57.9059 57.7116 57.6266 57.7116H55.9975C55.7182 57.7116 55.532 57.5332 55.532 57.2656V48.3903C55.532 48.1227 55.7182 47.9443 55.9975 47.9443H59.1627C61.7229 47.9443 62.7935 49.0147 62.7935 51.2893C62.7935 52.5827 62.4676 53.4747 61.6763 54.0099C61.6298 54.0545 61.5832 54.0991 61.6298 54.1883L63.1659 56.9534ZM58.5111 50.3527C58.2318 50.3527 58.0456 50.5311 58.0456 50.7987V51.8245C58.0456 52.0921 58.2318 52.2705 58.5111 52.2705H59.2558C59.9541 52.2705 60.2799 52.1813 60.2799 51.3339C60.2799 50.4865 59.9541 50.3973 59.2558 50.3973H58.5111V50.3527Z" fill="white"/>
<path d="M66.1914 50.7987C66.1914 50.5311 66.0518 50.3973 65.7725 50.3973H63.7244C63.4451 50.3973 63.3054 50.2635 63.3054 49.9959V48.435C63.3054 48.1674 63.4451 48.0336 63.7244 48.0336H71.1255C71.4048 48.0336 71.5444 48.1674 71.5444 48.435V49.9959C71.5444 50.2635 71.4048 50.3973 71.1255 50.3973H69.0774C68.7981 50.3973 68.6585 50.5311 68.6585 50.7987V57.3103C68.6585 57.5779 68.5188 57.7117 68.2395 57.7117H66.6103C66.331 57.7117 66.1914 57.5779 66.1914 57.3103V50.7987Z" fill="white"/>
<path d="M70.5204 29.1679V29.0787C70.3808 27.7407 69.8222 26.9379 68.0999 26.9379C66.3776 26.9379 65.8656 27.7407 65.6794 29.0787C65.6329 29.5247 65.6329 30.0599 65.6329 30.6843V35.0104C65.6329 37.3296 65.7725 38.7568 68.0999 38.7568C70.4273 38.7568 70.567 37.3296 70.567 35.8578H68.7516C68.1464 35.8578 67.8206 35.5456 67.8206 34.9658V32.5575C67.8206 31.9777 68.1464 31.6655 68.7516 31.6655H75.0356C75.6407 31.6655 75.9665 31.9777 75.9665 32.5575V36.5714C75.9665 38.5338 75.5476 43.8857 68.0999 43.8857C60.6522 43.8857 60.2333 38.5784 60.2333 36.5714V29.0787C60.2333 27.1163 60.6522 21.7644 68.0999 21.7644C75.5476 21.7644 75.9665 27.0717 75.9665 29.0787V29.1679C75.9665 29.6139 75.5941 29.9707 75.1287 29.9707H71.3583C70.8928 29.9707 70.5204 29.6139 70.5204 29.1679Z" fill="white"/>
</g>
<path d="M108.36 47.24C106.933 47.24 105.64 46.9333 104.48 46.32C103.333 45.6933 102.427 44.8333 101.76 43.74C101.107 42.6333 100.78 41.3867 100.78 40C100.78 38.6133 101.107 37.3733 101.76 36.28C102.427 35.1733 103.333 34.3133 104.48 33.7C105.64 33.0733 106.94 32.76 108.38 32.76C109.593 32.76 110.687 32.9733 111.66 33.4C112.647 33.8267 113.473 34.44 114.14 35.24L112.06 37.16C111.113 36.0667 109.94 35.52 108.54 35.52C107.673 35.52 106.9 35.7133 106.22 36.1C105.54 36.4733 105.007 37 104.62 37.68C104.247 38.36 104.06 39.1333 104.06 40C104.06 40.8667 104.247 41.64 104.62 42.32C105.007 43 105.54 43.5333 106.22 43.92C106.9 44.2933 107.673 44.48 108.54 44.48C109.94 44.48 111.113 43.9267 112.06 42.82L114.14 44.74C113.473 45.5533 112.647 46.1733 111.66 46.6C110.673 47.0267 109.573 47.24 108.36 47.24ZM126.792 36.24L121.932 47.66C121.438 48.9 120.825 49.7733 120.092 50.28C119.372 50.7867 118.498 51.04 117.472 51.04C116.912 51.04 116.358 50.9533 115.812 50.78C115.265 50.6067 114.818 50.3667 114.472 50.06L115.612 47.84C115.852 48.0533 116.125 48.22 116.432 48.34C116.752 48.46 117.065 48.52 117.372 48.52C117.798 48.52 118.145 48.4133 118.412 48.2C118.678 48 118.918 47.66 119.132 47.18L119.172 47.08L114.512 36.24H117.732L120.752 43.54L123.792 36.24H126.792ZM138.997 36.24V47H135.877V38.8H131.397V47H128.297V36.24H138.997ZM152.448 41.66C152.448 41.7 152.428 41.98 152.388 42.5H144.248C144.395 43.1667 144.742 43.6933 145.288 44.08C145.835 44.4667 146.515 44.66 147.328 44.66C147.888 44.66 148.382 44.58 148.808 44.42C149.248 44.2467 149.655 43.98 150.028 43.62L151.688 45.42C150.675 46.58 149.195 47.16 147.248 47.16C146.035 47.16 144.962 46.9267 144.028 46.46C143.095 45.98 142.375 45.32 141.868 44.48C141.362 43.64 141.108 42.6867 141.108 41.62C141.108 40.5667 141.355 39.62 141.848 38.78C142.355 37.9267 143.042 37.2667 143.908 36.8C144.788 36.32 145.768 36.08 146.848 36.08C147.902 36.08 148.855 36.3067 149.708 36.76C150.562 37.2133 151.228 37.8667 151.708 38.72C152.202 39.56 152.448 40.54 152.448 41.66ZM146.868 38.44C146.162 38.44 145.568 38.64 145.088 39.04C144.608 39.44 144.315 39.9867 144.208 40.68H149.508C149.402 40 149.108 39.46 148.628 39.06C148.148 38.6467 147.562 38.44 146.868 38.44ZM161.18 36.08C162.18 36.08 163.087 36.3133 163.9 36.78C164.727 37.2333 165.373 37.88 165.84 38.72C166.307 39.5467 166.54 40.5133 166.54 41.62C166.54 42.7267 166.307 43.7 165.84 44.54C165.373 45.3667 164.727 46.0133 163.9 46.48C163.087 46.9333 162.18 47.16 161.18 47.16C159.807 47.16 158.727 46.7267 157.94 45.86V50.88H154.82V36.24H157.8V37.48C158.573 36.5467 159.7 36.08 161.18 36.08ZM160.64 44.6C161.44 44.6 162.093 44.3333 162.6 43.8C163.12 43.2533 163.38 42.5267 163.38 41.62C163.38 40.7133 163.12 39.9933 162.6 39.46C162.093 38.9133 161.44 38.64 160.64 38.64C159.84 38.64 159.18 38.9133 158.66 39.46C158.153 39.9933 157.9 40.7133 157.9 41.62C157.9 42.5267 158.153 43.2533 158.66 43.8C159.18 44.3333 159.84 44.6 160.64 44.6ZM179.227 47V40.56L176.007 45.96H174.687L171.547 40.54V47H168.727V36.24H171.987L175.427 42.46L179.087 36.24H182.007L182.047 47H179.227ZM189.215 36.08C190.882 36.08 192.162 36.48 193.055 37.28C193.948 38.0667 194.395 39.26 194.395 40.86V47H191.475V45.66C190.888 46.66 189.795 47.16 188.195 47.16C187.368 47.16 186.648 47.02 186.035 46.74C185.435 46.46 184.975 46.0733 184.655 45.58C184.335 45.0867 184.175 44.5267 184.175 43.9C184.175 42.9 184.548 42.1133 185.295 41.54C186.055 40.9667 187.222 40.68 188.795 40.68H191.275C191.275 40 191.068 39.48 190.655 39.12C190.242 38.7467 189.622 38.56 188.795 38.56C188.222 38.56 187.655 38.6533 187.095 38.84C186.548 39.0133 186.082 39.2533 185.695 39.56L184.575 37.38C185.162 36.9667 185.862 36.6467 186.675 36.42C187.502 36.1933 188.348 36.08 189.215 36.08ZM188.975 45.06C189.508 45.06 189.982 44.94 190.395 44.7C190.808 44.4467 191.102 44.08 191.275 43.6V42.5H189.135C187.855 42.5 187.215 42.92 187.215 43.76C187.215 44.16 187.368 44.48 187.675 44.72C187.995 44.9467 188.428 45.06 188.975 45.06ZM203.445 36.08C204.445 36.08 205.352 36.3133 206.165 36.78C206.992 37.2333 207.639 37.88 208.105 38.72C208.572 39.5467 208.805 40.5133 208.805 41.62C208.805 42.7267 208.572 43.7 208.105 44.54C207.639 45.3667 206.992 46.0133 206.165 46.48C205.352 46.9333 204.445 47.16 203.445 47.16C202.072 47.16 200.992 46.7267 200.205 45.86V50.88H197.085V36.24H200.065V37.48C200.839 36.5467 201.965 36.08 203.445 36.08ZM202.905 44.6C203.705 44.6 204.359 44.3333 204.865 43.8C205.385 43.2533 205.645 42.5267 205.645 41.62C205.645 40.7133 205.385 39.9933 204.865 39.46C204.359 38.9133 203.705 38.64 202.905 38.64C202.105 38.64 201.445 38.9133 200.925 39.46C200.419 39.9933 200.165 40.7133 200.165 41.62C200.165 42.5267 200.419 43.2533 200.925 43.8C201.445 44.3333 202.105 44.6 202.905 44.6ZM215.732 42.92H214.112V47H210.992V36.24H214.112V40.42H215.792L218.712 36.24H222.032L218.272 41.4L222.292 47H218.612L215.732 42.92ZM233.952 41.66C233.952 41.7 233.932 41.98 233.892 42.5H225.752C225.899 43.1667 226.246 43.6933 226.792 44.08C227.339 44.4667 228.019 44.66 228.832 44.66C229.392 44.66 229.886 44.58 230.312 44.42C230.752 44.2467 231.159 43.98 231.532 43.62L233.192 45.42C232.179 46.58 230.699 47.16 228.752 47.16C227.539 47.16 226.466 46.9267 225.532 46.46C224.599 45.98 223.879 45.32 223.372 44.48C222.866 43.64 222.612 42.6867 222.612 41.62C222.612 40.5667 222.859 39.62 223.352 38.78C223.859 37.9267 224.546 37.2667 225.412 36.8C226.292 36.32 227.272 36.08 228.352 36.08C229.406 36.08 230.359 36.3067 231.212 36.76C232.066 37.2133 232.732 37.8667 233.212 38.72C233.706 39.56 233.952 40.54 233.952 41.66ZM228.372 38.44C227.666 38.44 227.072 38.64 226.592 39.04C226.112 39.44 225.819 39.9867 225.712 40.68H231.012C230.906 40 230.612 39.46 230.132 39.06C229.652 38.6467 229.066 38.44 228.372 38.44ZM245.013 38.8H241.373V47H238.273V38.8H234.633V36.24H245.013V38.8Z" fill="black"/>
<defs>
<clipPath id="clip0">
<rect width="89" height="81.9737" fill="white"/>
</clipPath>
</defs>
</svg>
